<mxfile host="Electron" modified="2023-12-05T21:34:57.586Z" agent="Mozilla/5.0 (Windows NT 10.0; Win64; x64) AppleWebKit/537.36 (KHTML, like Gecko) draw.io/22.1.2 Chrome/114.0.5735.289 Electron/25.9.4 Safari/537.36" etag="dSiEtBTiJIHTUDV5onGu" version="22.1.2" type="device">
  <diagram name="Page-1" id="c4acf3e9-155e-7222-9cf6-157b1a14988f">
    <mxGraphModel dx="1148" dy="1117" grid="1" gridSize="10" guides="1" tooltips="1" connect="1" arrows="1" fold="1" page="1" pageScale="1" pageWidth="827" pageHeight="1169" background="none" math="0" shadow="0">
      <root>
        <mxCell id="0" />
        <mxCell id="1" parent="0" />
        <mxCell id="AvyNL_v-l5fwx8h0FnHd-77" style="edgeStyle=orthogonalEdgeStyle;rounded=0;orthogonalLoop=1;jettySize=auto;html=1;exitX=0.75;exitY=0;exitDx=0;exitDy=0;endArrow=none;endFill=0;" edge="1" parent="1" source="AvyNL_v-l5fwx8h0FnHd-1" target="AvyNL_v-l5fwx8h0FnHd-41">
          <mxGeometry relative="1" as="geometry" />
        </mxCell>
        <mxCell id="AvyNL_v-l5fwx8h0FnHd-80" value="&lt;font style=&quot;font-size: 16px;&quot;&gt;driver&lt;/font&gt;" style="edgeLabel;html=1;align=center;verticalAlign=middle;resizable=0;points=[];" vertex="1" connectable="0" parent="AvyNL_v-l5fwx8h0FnHd-77">
          <mxGeometry x="-0.7255" y="-1" relative="1" as="geometry">
            <mxPoint x="121" y="-18" as="offset" />
          </mxGeometry>
        </mxCell>
        <mxCell id="AvyNL_v-l5fwx8h0FnHd-95" value="&lt;font style=&quot;font-size: 16px;&quot;&gt;1&lt;/font&gt;" style="edgeLabel;html=1;align=center;verticalAlign=middle;resizable=0;points=[];" vertex="1" connectable="0" parent="AvyNL_v-l5fwx8h0FnHd-77">
          <mxGeometry x="-0.9318" y="2" relative="1" as="geometry">
            <mxPoint x="10" y="-5" as="offset" />
          </mxGeometry>
        </mxCell>
        <mxCell id="AvyNL_v-l5fwx8h0FnHd-96" value="&lt;font style=&quot;font-size: 16px;&quot;&gt;1&lt;/font&gt;" style="edgeLabel;html=1;align=center;verticalAlign=middle;resizable=0;points=[];" vertex="1" connectable="0" parent="AvyNL_v-l5fwx8h0FnHd-77">
          <mxGeometry x="0.9402" y="1" relative="1" as="geometry">
            <mxPoint x="11" as="offset" />
          </mxGeometry>
        </mxCell>
        <mxCell id="AvyNL_v-l5fwx8h0FnHd-83" style="edgeStyle=orthogonalEdgeStyle;rounded=0;orthogonalLoop=1;jettySize=auto;html=1;exitX=0.75;exitY=1;exitDx=0;exitDy=0;entryX=0.5;entryY=0;entryDx=0;entryDy=0;endArrow=none;endFill=0;" edge="1" parent="1" source="AvyNL_v-l5fwx8h0FnHd-1" target="AvyNL_v-l5fwx8h0FnHd-63">
          <mxGeometry relative="1" as="geometry" />
        </mxCell>
        <mxCell id="AvyNL_v-l5fwx8h0FnHd-84" value="&lt;font style=&quot;font-size: 16px;&quot;&gt;wheels&lt;/font&gt;" style="edgeLabel;html=1;align=center;verticalAlign=middle;resizable=0;points=[];" vertex="1" connectable="0" parent="AvyNL_v-l5fwx8h0FnHd-83">
          <mxGeometry x="-0.7663" y="1" relative="1" as="geometry">
            <mxPoint x="-33" y="34" as="offset" />
          </mxGeometry>
        </mxCell>
        <mxCell id="AvyNL_v-l5fwx8h0FnHd-85" value="&lt;font style=&quot;font-size: 16px;&quot;&gt;1&lt;br&gt;&lt;/font&gt;" style="edgeLabel;html=1;align=center;verticalAlign=middle;resizable=0;points=[];" vertex="1" connectable="0" parent="AvyNL_v-l5fwx8h0FnHd-83">
          <mxGeometry x="-0.8742" y="1" relative="1" as="geometry">
            <mxPoint x="7" as="offset" />
          </mxGeometry>
        </mxCell>
        <mxCell id="AvyNL_v-l5fwx8h0FnHd-88" value="&lt;font style=&quot;font-size: 16px;&quot;&gt;4&lt;/font&gt;" style="edgeLabel;html=1;align=center;verticalAlign=middle;resizable=0;points=[];" vertex="1" connectable="0" parent="AvyNL_v-l5fwx8h0FnHd-83">
          <mxGeometry x="-0.8742" y="1" relative="1" as="geometry">
            <mxPoint x="67" y="136" as="offset" />
          </mxGeometry>
        </mxCell>
        <mxCell id="AvyNL_v-l5fwx8h0FnHd-1" value="Car" style="swimlane;fontStyle=1;align=center;verticalAlign=top;childLayout=stackLayout;horizontal=1;startSize=26;horizontalStack=0;resizeParent=1;resizeParentMax=0;resizeLast=0;collapsible=1;marginBottom=0;whiteSpace=wrap;html=1;" vertex="1" parent="1">
          <mxGeometry x="100" y="240" width="310" height="410" as="geometry">
            <mxRectangle x="140" y="120" width="60" height="30" as="alternateBounds" />
          </mxGeometry>
        </mxCell>
        <mxCell id="AvyNL_v-l5fwx8h0FnHd-2" value="- brand : String" style="text;strokeColor=none;fillColor=none;align=left;verticalAlign=top;spacingLeft=4;spacingRight=4;overflow=hidden;rotatable=0;points=[[0,0.5],[1,0.5]];portConstraint=eastwest;whiteSpace=wrap;html=1;" vertex="1" parent="AvyNL_v-l5fwx8h0FnHd-1">
          <mxGeometry y="26" width="310" height="26" as="geometry" />
        </mxCell>
        <mxCell id="AvyNL_v-l5fwx8h0FnHd-7" value="- model : String&lt;br&gt;" style="text;strokeColor=none;fillColor=none;align=left;verticalAlign=top;spacingLeft=4;spacingRight=4;overflow=hidden;rotatable=0;points=[[0,0.5],[1,0.5]];portConstraint=eastwest;whiteSpace=wrap;html=1;" vertex="1" parent="AvyNL_v-l5fwx8h0FnHd-1">
          <mxGeometry y="52" width="310" height="26" as="geometry" />
        </mxCell>
        <mxCell id="AvyNL_v-l5fwx8h0FnHd-8" value="- color : String" style="text;strokeColor=none;fillColor=none;align=left;verticalAlign=top;spacingLeft=4;spacingRight=4;overflow=hidden;rotatable=0;points=[[0,0.5],[1,0.5]];portConstraint=eastwest;whiteSpace=wrap;html=1;" vertex="1" parent="AvyNL_v-l5fwx8h0FnHd-1">
          <mxGeometry y="78" width="310" height="26" as="geometry" />
        </mxCell>
        <mxCell id="AvyNL_v-l5fwx8h0FnHd-9" value="- year : int" style="text;strokeColor=none;fillColor=none;align=left;verticalAlign=top;spacingLeft=4;spacingRight=4;overflow=hidden;rotatable=0;points=[[0,0.5],[1,0.5]];portConstraint=eastwest;whiteSpace=wrap;html=1;" vertex="1" parent="AvyNL_v-l5fwx8h0FnHd-1">
          <mxGeometry y="104" width="310" height="26" as="geometry" />
        </mxCell>
        <mxCell id="AvyNL_v-l5fwx8h0FnHd-11" value="- mileage : uint" style="text;strokeColor=none;fillColor=none;align=left;verticalAlign=top;spacingLeft=4;spacingRight=4;overflow=hidden;rotatable=0;points=[[0,0.5],[1,0.5]];portConstraint=eastwest;whiteSpace=wrap;html=1;" vertex="1" parent="AvyNL_v-l5fwx8h0FnHd-1">
          <mxGeometry y="130" width="310" height="26" as="geometry" />
        </mxCell>
        <mxCell id="AvyNL_v-l5fwx8h0FnHd-3" value="" style="line;strokeWidth=1;fillColor=none;align=left;verticalAlign=middle;spacingTop=-1;spacingLeft=3;spacingRight=3;rotatable=0;labelPosition=right;points=[];portConstraint=eastwest;strokeColor=inherit;" vertex="1" parent="AvyNL_v-l5fwx8h0FnHd-1">
          <mxGeometry y="156" width="310" height="8" as="geometry" />
        </mxCell>
        <mxCell id="AvyNL_v-l5fwx8h0FnHd-4" value="+ # all getter methods" style="text;strokeColor=none;fillColor=none;align=left;verticalAlign=top;spacingLeft=4;spacingRight=4;overflow=hidden;rotatable=0;points=[[0,0.5],[1,0.5]];portConstraint=eastwest;whiteSpace=wrap;html=1;" vertex="1" parent="AvyNL_v-l5fwx8h0FnHd-1">
          <mxGeometry y="164" width="310" height="26" as="geometry" />
        </mxCell>
        <mxCell id="AvyNL_v-l5fwx8h0FnHd-18" value="- set_status(status : CarStatus) : None" style="text;strokeColor=none;fillColor=none;align=left;verticalAlign=top;spacingLeft=4;spacingRight=4;overflow=hidden;rotatable=0;points=[[0,0.5],[1,0.5]];portConstraint=eastwest;whiteSpace=wrap;html=1;" vertex="1" parent="AvyNL_v-l5fwx8h0FnHd-1">
          <mxGeometry y="190" width="310" height="26" as="geometry" />
        </mxCell>
        <mxCell id="AvyNL_v-l5fwx8h0FnHd-19" value="+ accelerate(speed : int) : None" style="text;strokeColor=none;fillColor=none;align=left;verticalAlign=top;spacingLeft=4;spacingRight=4;overflow=hidden;rotatable=0;points=[[0,0.5],[1,0.5]];portConstraint=eastwest;whiteSpace=wrap;html=1;" vertex="1" parent="AvyNL_v-l5fwx8h0FnHd-1">
          <mxGeometry y="216" width="310" height="26" as="geometry" />
        </mxCell>
        <mxCell id="AvyNL_v-l5fwx8h0FnHd-21" value="+ brake(speed=0 : int) : None" style="text;strokeColor=none;fillColor=none;align=left;verticalAlign=top;spacingLeft=4;spacingRight=4;overflow=hidden;rotatable=0;points=[[0,0.5],[1,0.5]];portConstraint=eastwest;whiteSpace=wrap;html=1;" vertex="1" parent="AvyNL_v-l5fwx8h0FnHd-1">
          <mxGeometry y="242" width="310" height="26" as="geometry" />
        </mxCell>
        <mxCell id="AvyNL_v-l5fwx8h0FnHd-20" value="+ refuel(level=100 : int) : None" style="text;strokeColor=none;fillColor=none;align=left;verticalAlign=top;spacingLeft=4;spacingRight=4;overflow=hidden;rotatable=0;points=[[0,0.5],[1,0.5]];portConstraint=eastwest;whiteSpace=wrap;html=1;" vertex="1" parent="AvyNL_v-l5fwx8h0FnHd-1">
          <mxGeometry y="268" width="310" height="26" as="geometry" />
        </mxCell>
        <mxCell id="AvyNL_v-l5fwx8h0FnHd-23" value="+ drive(distance : int) : None" style="text;strokeColor=none;fillColor=none;align=left;verticalAlign=top;spacingLeft=4;spacingRight=4;overflow=hidden;rotatable=0;points=[[0,0.5],[1,0.5]];portConstraint=eastwest;whiteSpace=wrap;html=1;" vertex="1" parent="AvyNL_v-l5fwx8h0FnHd-1">
          <mxGeometry y="294" width="310" height="26" as="geometry" />
        </mxCell>
        <mxCell id="AvyNL_v-l5fwx8h0FnHd-22" value="+ start_engine() : None" style="text;strokeColor=none;fillColor=none;align=left;verticalAlign=top;spacingLeft=4;spacingRight=4;overflow=hidden;rotatable=0;points=[[0,0.5],[1,0.5]];portConstraint=eastwest;whiteSpace=wrap;html=1;" vertex="1" parent="AvyNL_v-l5fwx8h0FnHd-1">
          <mxGeometry y="320" width="310" height="26" as="geometry" />
        </mxCell>
        <mxCell id="AvyNL_v-l5fwx8h0FnHd-24" value="+ stop_engine() : None" style="text;strokeColor=none;fillColor=none;align=left;verticalAlign=top;spacingLeft=4;spacingRight=4;overflow=hidden;rotatable=0;points=[[0,0.5],[1,0.5]];portConstraint=eastwest;whiteSpace=wrap;html=1;" vertex="1" parent="AvyNL_v-l5fwx8h0FnHd-1">
          <mxGeometry y="346" width="310" height="26" as="geometry" />
        </mxCell>
        <mxCell id="AvyNL_v-l5fwx8h0FnHd-40" value="- &lt;u&gt;calc_fuel_consumption(distance : int, runtime : double, weather=CLEAR : Weather) : int&lt;/u&gt;" style="text;strokeColor=none;fillColor=none;align=left;verticalAlign=top;spacingLeft=4;spacingRight=4;overflow=hidden;rotatable=0;points=[[0,0.5],[1,0.5]];portConstraint=eastwest;whiteSpace=wrap;html=1;" vertex="1" parent="AvyNL_v-l5fwx8h0FnHd-1">
          <mxGeometry y="372" width="310" height="38" as="geometry" />
        </mxCell>
        <mxCell id="AvyNL_v-l5fwx8h0FnHd-41" value="Person" style="swimlane;fontStyle=1;align=center;verticalAlign=top;childLayout=stackLayout;horizontal=1;startSize=26;horizontalStack=0;resizeParent=1;resizeParentMax=0;resizeLast=0;collapsible=1;marginBottom=0;whiteSpace=wrap;html=1;" vertex="1" parent="1">
          <mxGeometry x="620" y="10" width="160" height="164" as="geometry" />
        </mxCell>
        <mxCell id="AvyNL_v-l5fwx8h0FnHd-52" value="- name : String" style="text;strokeColor=none;fillColor=none;align=left;verticalAlign=top;spacingLeft=4;spacingRight=4;overflow=hidden;rotatable=0;points=[[0,0.5],[1,0.5]];portConstraint=eastwest;whiteSpace=wrap;html=1;" vertex="1" parent="AvyNL_v-l5fwx8h0FnHd-41">
          <mxGeometry y="26" width="160" height="26" as="geometry" />
        </mxCell>
        <mxCell id="AvyNL_v-l5fwx8h0FnHd-51" value="- surname : String" style="text;strokeColor=none;fillColor=none;align=left;verticalAlign=top;spacingLeft=4;spacingRight=4;overflow=hidden;rotatable=0;points=[[0,0.5],[1,0.5]];portConstraint=eastwest;whiteSpace=wrap;html=1;" vertex="1" parent="AvyNL_v-l5fwx8h0FnHd-41">
          <mxGeometry y="52" width="160" height="26" as="geometry" />
        </mxCell>
        <mxCell id="AvyNL_v-l5fwx8h0FnHd-42" value="- age : uint" style="text;strokeColor=none;fillColor=none;align=left;verticalAlign=top;spacingLeft=4;spacingRight=4;overflow=hidden;rotatable=0;points=[[0,0.5],[1,0.5]];portConstraint=eastwest;whiteSpace=wrap;html=1;" vertex="1" parent="AvyNL_v-l5fwx8h0FnHd-41">
          <mxGeometry y="78" width="160" height="26" as="geometry" />
        </mxCell>
        <mxCell id="AvyNL_v-l5fwx8h0FnHd-45" value="- licence : boolean" style="text;strokeColor=none;fillColor=none;align=left;verticalAlign=top;spacingLeft=4;spacingRight=4;overflow=hidden;rotatable=0;points=[[0,0.5],[1,0.5]];portConstraint=eastwest;whiteSpace=wrap;html=1;" vertex="1" parent="AvyNL_v-l5fwx8h0FnHd-41">
          <mxGeometry y="104" width="160" height="26" as="geometry" />
        </mxCell>
        <mxCell id="AvyNL_v-l5fwx8h0FnHd-47" value="" style="line;strokeWidth=1;fillColor=none;align=left;verticalAlign=middle;spacingTop=-1;spacingLeft=3;spacingRight=3;rotatable=0;labelPosition=right;points=[];portConstraint=eastwest;strokeColor=inherit;" vertex="1" parent="AvyNL_v-l5fwx8h0FnHd-41">
          <mxGeometry y="130" width="160" height="8" as="geometry" />
        </mxCell>
        <mxCell id="AvyNL_v-l5fwx8h0FnHd-44" value="+ # all getter methods" style="text;strokeColor=none;fillColor=none;align=left;verticalAlign=top;spacingLeft=4;spacingRight=4;overflow=hidden;rotatable=0;points=[[0,0.5],[1,0.5]];portConstraint=eastwest;whiteSpace=wrap;html=1;" vertex="1" parent="AvyNL_v-l5fwx8h0FnHd-41">
          <mxGeometry y="138" width="160" height="26" as="geometry" />
        </mxCell>
        <mxCell id="AvyNL_v-l5fwx8h0FnHd-53" value="Engine" style="swimlane;fontStyle=1;align=center;verticalAlign=top;childLayout=stackLayout;horizontal=1;startSize=26;horizontalStack=0;resizeParent=1;resizeParentMax=0;resizeLast=0;collapsible=1;marginBottom=0;whiteSpace=wrap;html=1;" vertex="1" parent="1">
          <mxGeometry x="630" y="480" width="180" height="216" as="geometry" />
        </mxCell>
        <mxCell id="AvyNL_v-l5fwx8h0FnHd-54" value="- performance : uint" style="text;strokeColor=none;fillColor=none;align=left;verticalAlign=top;spacingLeft=4;spacingRight=4;overflow=hidden;rotatable=0;points=[[0,0.5],[1,0.5]];portConstraint=eastwest;whiteSpace=wrap;html=1;" vertex="1" parent="AvyNL_v-l5fwx8h0FnHd-53">
          <mxGeometry y="26" width="180" height="26" as="geometry" />
        </mxCell>
        <mxCell id="AvyNL_v-l5fwx8h0FnHd-55" value="- capacity : float" style="text;strokeColor=none;fillColor=none;align=left;verticalAlign=top;spacingLeft=4;spacingRight=4;overflow=hidden;rotatable=0;points=[[0,0.5],[1,0.5]];portConstraint=eastwest;whiteSpace=wrap;html=1;" vertex="1" parent="AvyNL_v-l5fwx8h0FnHd-53">
          <mxGeometry y="52" width="180" height="26" as="geometry" />
        </mxCell>
        <mxCell id="AvyNL_v-l5fwx8h0FnHd-56" value="- number_of_cylinders : uint" style="text;strokeColor=none;fillColor=none;align=left;verticalAlign=top;spacingLeft=4;spacingRight=4;overflow=hidden;rotatable=0;points=[[0,0.5],[1,0.5]];portConstraint=eastwest;whiteSpace=wrap;html=1;" vertex="1" parent="AvyNL_v-l5fwx8h0FnHd-53">
          <mxGeometry y="78" width="180" height="26" as="geometry" />
        </mxCell>
        <mxCell id="AvyNL_v-l5fwx8h0FnHd-62" value="- rpm : uint" style="text;strokeColor=none;fillColor=none;align=left;verticalAlign=top;spacingLeft=4;spacingRight=4;overflow=hidden;rotatable=0;points=[[0,0.5],[1,0.5]];portConstraint=eastwest;whiteSpace=wrap;html=1;" vertex="1" parent="AvyNL_v-l5fwx8h0FnHd-53">
          <mxGeometry y="104" width="180" height="26" as="geometry" />
        </mxCell>
        <mxCell id="AvyNL_v-l5fwx8h0FnHd-58" value="" style="line;strokeWidth=1;fillColor=none;align=left;verticalAlign=middle;spacingTop=-1;spacingLeft=3;spacingRight=3;rotatable=0;labelPosition=right;points=[];portConstraint=eastwest;strokeColor=inherit;" vertex="1" parent="AvyNL_v-l5fwx8h0FnHd-53">
          <mxGeometry y="130" width="180" height="8" as="geometry" />
        </mxCell>
        <mxCell id="AvyNL_v-l5fwx8h0FnHd-60" value="+ set_rpm(rpm : uint) : None" style="text;strokeColor=none;fillColor=none;align=left;verticalAlign=top;spacingLeft=4;spacingRight=4;overflow=hidden;rotatable=0;points=[[0,0.5],[1,0.5]];portConstraint=eastwest;whiteSpace=wrap;html=1;" vertex="1" parent="AvyNL_v-l5fwx8h0FnHd-53">
          <mxGeometry y="138" width="180" height="26" as="geometry" />
        </mxCell>
        <mxCell id="AvyNL_v-l5fwx8h0FnHd-59" value="+ start() : bool" style="text;strokeColor=none;fillColor=none;align=left;verticalAlign=top;spacingLeft=4;spacingRight=4;overflow=hidden;rotatable=0;points=[[0,0.5],[1,0.5]];portConstraint=eastwest;whiteSpace=wrap;html=1;" vertex="1" parent="AvyNL_v-l5fwx8h0FnHd-53">
          <mxGeometry y="164" width="180" height="26" as="geometry" />
        </mxCell>
        <mxCell id="AvyNL_v-l5fwx8h0FnHd-61" value="+ stop() : bool" style="text;strokeColor=none;fillColor=none;align=left;verticalAlign=top;spacingLeft=4;spacingRight=4;overflow=hidden;rotatable=0;points=[[0,0.5],[1,0.5]];portConstraint=eastwest;whiteSpace=wrap;html=1;" vertex="1" parent="AvyNL_v-l5fwx8h0FnHd-53">
          <mxGeometry y="190" width="180" height="26" as="geometry" />
        </mxCell>
        <mxCell id="AvyNL_v-l5fwx8h0FnHd-63" value="Wheel" style="swimlane;fontStyle=1;align=center;verticalAlign=top;childLayout=stackLayout;horizontal=1;startSize=26;horizontalStack=0;resizeParent=1;resizeParentMax=0;resizeLast=0;collapsible=1;marginBottom=0;whiteSpace=wrap;html=1;" vertex="1" parent="1">
          <mxGeometry x="305" y="820" width="160" height="52" as="geometry" />
        </mxCell>
        <mxCell id="AvyNL_v-l5fwx8h0FnHd-64" value="- diameter : float" style="text;strokeColor=none;fillColor=none;align=left;verticalAlign=top;spacingLeft=4;spacingRight=4;overflow=hidden;rotatable=0;points=[[0,0.5],[1,0.5]];portConstraint=eastwest;whiteSpace=wrap;html=1;" vertex="1" parent="AvyNL_v-l5fwx8h0FnHd-63">
          <mxGeometry y="26" width="160" height="26" as="geometry" />
        </mxCell>
        <mxCell id="AvyNL_v-l5fwx8h0FnHd-70" value="Tire" style="swimlane;fontStyle=1;align=center;verticalAlign=top;childLayout=stackLayout;horizontal=1;startSize=26;horizontalStack=0;resizeParent=1;resizeParentMax=0;resizeLast=0;collapsible=1;marginBottom=0;whiteSpace=wrap;html=1;" vertex="1" parent="1">
          <mxGeometry x="12" y="803" width="175" height="112" as="geometry" />
        </mxCell>
        <mxCell id="AvyNL_v-l5fwx8h0FnHd-71" value="- width : float" style="text;strokeColor=none;fillColor=none;align=left;verticalAlign=top;spacingLeft=4;spacingRight=4;overflow=hidden;rotatable=0;points=[[0,0.5],[1,0.5]];portConstraint=eastwest;whiteSpace=wrap;html=1;" vertex="1" parent="AvyNL_v-l5fwx8h0FnHd-70">
          <mxGeometry y="26" width="175" height="26" as="geometry" />
        </mxCell>
        <mxCell id="AvyNL_v-l5fwx8h0FnHd-72" value="- air_pressure : float" style="text;strokeColor=none;fillColor=none;align=left;verticalAlign=top;spacingLeft=4;spacingRight=4;overflow=hidden;rotatable=0;points=[[0,0.5],[1,0.5]];portConstraint=eastwest;whiteSpace=wrap;html=1;" vertex="1" parent="AvyNL_v-l5fwx8h0FnHd-70">
          <mxGeometry y="52" width="175" height="26" as="geometry" />
        </mxCell>
        <mxCell id="AvyNL_v-l5fwx8h0FnHd-73" value="" style="line;strokeWidth=1;fillColor=none;align=left;verticalAlign=middle;spacingTop=-1;spacingLeft=3;spacingRight=3;rotatable=0;labelPosition=right;points=[];portConstraint=eastwest;strokeColor=inherit;" vertex="1" parent="AvyNL_v-l5fwx8h0FnHd-70">
          <mxGeometry y="78" width="175" height="8" as="geometry" />
        </mxCell>
        <mxCell id="AvyNL_v-l5fwx8h0FnHd-74" value="+ check_air_pressure() : float" style="text;strokeColor=none;fillColor=none;align=left;verticalAlign=top;spacingLeft=4;spacingRight=4;overflow=hidden;rotatable=0;points=[[0,0.5],[1,0.5]];portConstraint=eastwest;whiteSpace=wrap;html=1;" vertex="1" parent="AvyNL_v-l5fwx8h0FnHd-70">
          <mxGeometry y="86" width="175" height="26" as="geometry" />
        </mxCell>
        <mxCell id="AvyNL_v-l5fwx8h0FnHd-81" style="edgeStyle=orthogonalEdgeStyle;rounded=0;orthogonalLoop=1;jettySize=auto;html=1;exitX=1;exitY=0.5;exitDx=0;exitDy=0;entryX=0.5;entryY=0;entryDx=0;entryDy=0;strokeColor=default;endArrow=none;endFill=0;" edge="1" parent="1" source="AvyNL_v-l5fwx8h0FnHd-4" target="AvyNL_v-l5fwx8h0FnHd-53">
          <mxGeometry relative="1" as="geometry">
            <Array as="points">
              <mxPoint x="720" y="417" />
            </Array>
          </mxGeometry>
        </mxCell>
        <mxCell id="AvyNL_v-l5fwx8h0FnHd-82" value="&lt;font style=&quot;font-size: 16px;&quot;&gt;engine&lt;/font&gt;" style="edgeLabel;html=1;align=center;verticalAlign=middle;resizable=0;points=[];" vertex="1" connectable="0" parent="AvyNL_v-l5fwx8h0FnHd-81">
          <mxGeometry x="-0.7802" y="-2" relative="1" as="geometry">
            <mxPoint x="129" y="-19" as="offset" />
          </mxGeometry>
        </mxCell>
        <mxCell id="AvyNL_v-l5fwx8h0FnHd-92" value="&lt;font style=&quot;font-size: 16px;&quot;&gt;1&lt;/font&gt;" style="edgeLabel;html=1;align=center;verticalAlign=middle;resizable=0;points=[];" vertex="1" connectable="0" parent="AvyNL_v-l5fwx8h0FnHd-81">
          <mxGeometry x="-0.8891" relative="1" as="geometry">
            <mxPoint y="-17" as="offset" />
          </mxGeometry>
        </mxCell>
        <mxCell id="AvyNL_v-l5fwx8h0FnHd-94" value="&lt;font style=&quot;font-size: 16px;&quot;&gt;1&lt;/font&gt;" style="edgeLabel;html=1;align=center;verticalAlign=middle;resizable=0;points=[];" vertex="1" connectable="0" parent="AvyNL_v-l5fwx8h0FnHd-81">
          <mxGeometry x="0.8852" relative="1" as="geometry">
            <mxPoint x="10" as="offset" />
          </mxGeometry>
        </mxCell>
        <mxCell id="AvyNL_v-l5fwx8h0FnHd-86" style="edgeStyle=orthogonalEdgeStyle;rounded=0;orthogonalLoop=1;jettySize=auto;html=1;exitX=0;exitY=0.5;exitDx=0;exitDy=0;endArrow=none;endFill=0;" edge="1" parent="1" source="AvyNL_v-l5fwx8h0FnHd-64" target="AvyNL_v-l5fwx8h0FnHd-70">
          <mxGeometry relative="1" as="geometry" />
        </mxCell>
        <mxCell id="AvyNL_v-l5fwx8h0FnHd-87" value="&lt;font style=&quot;font-size: 16px;&quot;&gt;tire&lt;/font&gt;" style="edgeLabel;html=1;align=center;verticalAlign=middle;resizable=0;points=[];" vertex="1" connectable="0" parent="AvyNL_v-l5fwx8h0FnHd-86">
          <mxGeometry x="0.0371" y="-1" relative="1" as="geometry">
            <mxPoint x="3" y="-16" as="offset" />
          </mxGeometry>
        </mxCell>
        <mxCell id="AvyNL_v-l5fwx8h0FnHd-90" value="&lt;font style=&quot;font-size: 16px;&quot;&gt;1&lt;/font&gt;" style="edgeLabel;html=1;align=center;verticalAlign=middle;resizable=0;points=[];" vertex="1" connectable="0" parent="AvyNL_v-l5fwx8h0FnHd-86">
          <mxGeometry x="-0.6205" relative="1" as="geometry">
            <mxPoint x="10" y="-19" as="offset" />
          </mxGeometry>
        </mxCell>
        <mxCell id="AvyNL_v-l5fwx8h0FnHd-91" value="&lt;font style=&quot;font-size: 16px;&quot;&gt;1&lt;/font&gt;" style="edgeLabel;html=1;align=center;verticalAlign=middle;resizable=0;points=[];" vertex="1" connectable="0" parent="AvyNL_v-l5fwx8h0FnHd-86">
          <mxGeometry x="-0.6205" relative="1" as="geometry">
            <mxPoint x="-86" y="-19" as="offset" />
          </mxGeometry>
        </mxCell>
      </root>
    </mxGraphModel>
  </diagram>
</mxfile>
